<svg width="22" height="22" viewBox="0 0 22 22" fill="none" xmlns="http://www.w3.org/2000/svg">
<g opacity="0.5">
<path d="M18.8159 2.5043H3.18395C2.80801 2.5043 2.5043 2.80801 2.5043 3.18395V18.8159C2.5043 19.1918 2.80801 19.4955 3.18395 19.4955H18.8159C19.1918 19.4955 19.4955 19.1918 19.4955 18.8159V3.18395C19.4955 2.80801 19.1918 2.5043 18.8159 2.5043ZM16.8534 7.46361H15.4962C14.4321 7.46361 14.2261 7.9691 14.2261 8.71247V10.35H16.7663L16.435 12.9136H14.2261V19.4955H11.5776V12.9157H9.36239V10.35H11.5776V8.45973C11.5776 6.26573 12.9178 5.06997 14.876 5.06997C15.8148 5.06997 16.6198 5.14006 16.8555 5.17192V7.46361H16.8534Z" fill="white"/>
</g>
</svg>
