<svg width="45" height="46" viewBox="0 0 45 46" fill="none" xmlns="http://www.w3.org/2000/svg">
<circle cx="22.5" cy="23.5" r="22.5" fill="#0156FF"/>
<path d="M22.7786 14.5854C18.172 14.5854 14.4242 18.3602 14.4242 23V26.4862C14.4242 27.3479 15.1736 28.0488 16.095 28.0488H16.9305C17.1521 28.0488 17.3646 27.9601 17.5212 27.8023C17.6779 27.6445 17.7659 27.4305 17.7659 27.2073V22.8797C17.7659 22.6565 17.6779 22.4425 17.5212 22.2847C17.3646 22.1269 17.1521 22.0382 16.9305 22.0382H16.1719C16.6364 18.7818 19.4184 16.2683 22.7786 16.2683C26.1387 16.2683 28.9208 18.7818 29.3853 22.0382H28.6267C28.4051 22.0382 28.1926 22.1269 28.0359 22.2847C27.8793 22.4425 27.7913 22.6565 27.7913 22.8797V28.0488C27.7913 28.9769 27.0419 29.7317 26.1204 29.7317H24.4495V28.8903H21.1077V31.4147H26.1204C27.9634 31.4147 29.4621 29.9051 29.4621 28.0488C30.3836 28.0488 31.133 27.3479 31.133 26.4862V23C31.133 18.3602 27.3852 14.5854 22.7786 14.5854Z" fill="white"/>
</svg>
