<svg width="45" height="47" viewBox="0 0 45 47" fill="none" xmlns="http://www.w3.org/2000/svg">
<circle cx="22.5" cy="23.5" r="22.5" fill="#0156FF"/>
<g clip-path="url(#clip0)">
<path d="M24.7473 31.4876L22.8384 33.4104L20.9295 31.4876C17.1776 30.6149 14.3769 27.2261 14.3769 23.1827C14.3769 18.478 18.1676 14.6597 22.8384 14.6597C27.5092 14.6597 31.3 18.478 31.3 23.1827C31.3 27.2261 28.4992 30.6149 24.7473 31.4876ZM17.781 26.0942C19.0231 27.9608 20.888 29.1489 22.9738 29.1489C25.0587 29.1489 26.9245 27.9616 28.1658 26.0942C26.7576 24.7685 24.9013 24.0323 22.9738 24.0351C21.046 24.0321 19.1894 24.7683 17.781 26.0942ZM22.8384 22.3304C23.5117 22.3304 24.1573 22.061 24.6334 21.5815C25.1094 21.102 25.3769 20.4517 25.3769 19.7735C25.3769 19.0954 25.1094 18.445 24.6334 17.9655C24.1573 17.486 23.5117 17.2166 22.8384 17.2166C22.1652 17.2166 21.5195 17.486 21.0435 17.9655C20.5674 18.445 20.3 19.0954 20.3 19.7735C20.3 20.4517 20.5674 21.102 21.0435 21.5815C21.5195 22.061 22.1652 22.3304 22.8384 22.3304Z" fill="white"/>
</g>
<defs>
<clipPath id="clip0">
<rect width="20.3077" height="20.4554" fill="white" transform="translate(12.6846 12.9551)"/>
</clipPath>
</defs>
</svg>
