<svg width="45" height="47" viewBox="0 0 45 47" fill="none" xmlns="http://www.w3.org/2000/svg">
<circle cx="22.5" cy="23.5" r="22.5" fill="#0156FF"/>
<g clip-path="url(#clip0)">
<path d="M31.0999 15.3615C31.0489 15.2334 30.9508 15.1301 30.826 15.073C30.7013 15.016 30.5595 15.0095 30.4301 15.0551C30.3008 15.1006 30.1939 15.1947 30.1316 15.3176C30.0693 15.4405 30.0565 15.5829 30.0958 15.7151C30.9134 18.0816 29.2906 19.849 28.0534 20.7956L27.5535 20.0741C27.3854 19.8322 27.0097 19.631 26.7175 19.6274L23.9121 19.6398C23.5694 19.6502 23.2358 19.7538 22.9467 19.9394L14.68 25.7777C14.4877 25.914 14.3569 26.1215 14.3162 26.3547C14.2754 26.588 14.3281 26.828 14.4626 27.0222L18.2194 32.4359C18.501 32.8392 18.9506 32.7905 19.3519 32.5086L27.6186 26.6694C27.8562 26.5001 28.1308 26.1349 28.2276 25.8557L29.1058 23.0682C29.2027 22.7899 29.1437 22.3653 28.9756 22.1234L28.6711 21.6837C30.3326 20.4012 32.0574 18.1348 31.0999 15.3615ZM27.2534 23.6558C27.1012 23.7632 26.9293 23.8393 26.7478 23.8798C26.5663 23.9202 26.3787 23.9243 26.1956 23.8917C26.0126 23.8591 25.8377 23.7905 25.681 23.6898C25.5243 23.5891 25.3888 23.4583 25.2822 23.3048C25.0666 22.9943 24.9821 22.6103 25.0472 22.2371C25.1124 21.8638 25.3219 21.5319 25.6298 21.3141C25.8712 21.1438 26.1594 21.0537 26.4542 21.0564C26.7489 21.0591 27.0354 21.1545 27.2737 21.3292C27.0343 21.4746 26.8698 21.5596 26.839 21.5729C26.7299 21.6253 26.6417 21.7135 26.5889 21.8229C26.536 21.9324 26.5217 22.0567 26.5482 22.1755C26.5747 22.2943 26.6404 22.4004 26.7347 22.4766C26.8289 22.5528 26.946 22.5945 27.0669 22.5949C27.1426 22.5949 27.22 22.5772 27.293 22.5426C27.4638 22.461 27.6468 22.3644 27.8378 22.2501C27.8817 22.5161 27.8502 22.7891 27.7468 23.0378C27.6434 23.2865 27.4724 23.5007 27.2534 23.6558Z" fill="white"/>
</g>
<defs>
<clipPath id="clip0">
<rect width="17.6" height="17.7268" fill="white" transform="translate(14.0385 15.0027)"/>
</clipPath>
</defs>
</svg>
