<svg width="22" height="22" viewBox="0 0 22 22" fill="none" xmlns="http://www.w3.org/2000/svg">
<g opacity="0.5">
<path d="M11 8.13617C9.42302 8.13617 8.13611 9.42308 8.13611 11C8.13611 12.577 9.42302 13.8639 11 13.8639C12.5769 13.8639 13.8638 12.577 13.8638 11C13.8638 9.42308 12.5769 8.13617 11 8.13617ZM19.5894 11C19.5894 9.8141 19.6002 8.6389 19.5336 7.45511C19.467 6.08012 19.1533 4.8598 18.1478 3.85433C17.1402 2.84672 15.922 2.53519 14.547 2.46859C13.3611 2.40199 12.1859 2.41273 11.0021 2.41273C9.81618 2.41273 8.64099 2.40199 7.4572 2.46859C6.0822 2.53519 4.86189 2.84887 3.85642 3.85433C2.8488 4.86195 2.53728 6.08012 2.47068 7.45511C2.40407 8.64105 2.41482 9.81625 2.41482 11C2.41482 12.1838 2.40407 13.3612 2.47068 14.545C2.53728 15.92 2.85095 17.1403 3.85642 18.1457C4.86403 19.1534 6.0822 19.4649 7.4572 19.5315C8.64314 19.5981 9.81833 19.5873 11.0021 19.5873C12.1881 19.5873 13.3633 19.5981 14.547 19.5315C15.922 19.4649 17.1424 19.1512 18.1478 18.1457C19.1554 17.1381 19.467 15.92 19.5336 14.545C19.6023 13.3612 19.5894 12.186 19.5894 11ZM11 15.4065C8.5615 15.4065 6.59353 13.4385 6.59353 11C6.59353 8.56156 8.5615 6.59359 11 6.59359C13.4384 6.59359 15.4064 8.56156 15.4064 11C15.4064 13.4385 13.4384 15.4065 11 15.4065ZM15.5869 7.44222C15.0176 7.44222 14.5578 6.98246 14.5578 6.41312C14.5578 5.84379 15.0176 5.38402 15.5869 5.38402C16.1562 5.38402 16.616 5.84379 16.616 6.41312C16.6162 6.54831 16.5897 6.68221 16.538 6.80714C16.4863 6.93208 16.4105 7.04559 16.3149 7.14119C16.2194 7.23678 16.1058 7.31258 15.9809 7.36423C15.856 7.41589 15.7221 7.44239 15.5869 7.44222Z" fill="white"/>
</g>
</svg>
