<svg width="10" height="9" viewBox="0 0 10 9" fill="none" xmlns="http://www.w3.org/2000/svg">
<path d="M5.11742 0.173834C5.15457 0.10127 5.25828 0.10127 5.29544 0.173834L6.52185 2.56898C6.53637 2.59735 6.56355 2.61709 6.59502 2.62214L9.25191 3.04838C9.33241 3.06129 9.36446 3.15993 9.30692 3.21769L7.40799 5.12421C7.3855 5.14679 7.37512 5.17874 7.38004 5.21023L7.79569 7.8688C7.80828 7.94935 7.72438 8.01031 7.65166 7.97344L5.25165 6.75659C5.22323 6.74218 5.18963 6.74218 5.16121 6.75659L2.76119 7.97344C2.68848 8.01031 2.60458 7.94935 2.61717 7.8688L3.03282 5.21023C3.03774 5.17874 3.02736 5.14679 3.00487 5.12421L1.10593 3.21769C1.0484 3.15993 1.08045 3.06129 1.16094 3.04838L3.81784 2.62214C3.84931 2.61709 3.87649 2.59735 3.89101 2.56898L5.11742 0.173834Z" fill="#E9A426"/>
</svg>
